<svg version="1.2" baseProfile="tiny" viewBox="0 0 42.501 42.501" xmlns:xlink="http://www.w3.org/1999/xlink" xmlns="http://www.w3.org/2000/svg">
<path style="fill:#ffffff;" d="M21.2509,0.0C9.533,0.0,0.0,9.533,0.0,21.2501C0.0,32.9672,9.533,42.5001,21.2509,42.5001C32.9689,42.5001,42.501,32.9672,42.501,21.2501C42.501,9.533,32.9689,0.0,21.2509,0.0M21.2509,40.5009C10.6359,40.5009,2.0001,31.8651,2.0001,21.2501C2.0001,10.635,10.6359,2.0001,21.2509,2.0001C31.8651,2.0001,40.5009,10.6359,40.5009,21.2501C40.5009,31.8638,31.8651,40.5009,21.2509,40.5009M16.623,26.201L13.6849,26.201L13.6849,10.5398L18.417,10.5398L21.259,21.2229L24.0692,10.5398L28.8119,10.5398L28.8119,26.201L25.8742,26.201L25.8742,13.8732L22.7661,26.201L19.7209,26.201L16.623,13.8732L16.623,26.201M29.6772,30.619C29.6772,31.1711,29.2301,31.619,28.6771,31.619L14.427,31.619C13.874,31.619,13.4269,31.1711,13.4269,30.619C13.4269,30.0669,13.874,29.6189,14.427,29.6189L28.6771,29.6189C29.2288,29.6189,29.6772,30.0669,29.6772,30.619Z"/>
</svg>